<?xml version="1.0" encoding="UTF-8"?>
<svg xmlns="http://www.w3.org/2000/svg" xmlns:xlink="http://www.w3.org/1999/xlink" width="400" height="400" viewBox="0 0 400 400">
<rect x="-40" y="-40" width="480" height="480" fill="rgb(100%, 100%, 100%)" fill-opacity="1"/>
<path fill-rule="nonzero" fill="rgb(100%, 100%, 100%)" fill-opacity="1" d="M 16 384 L 384 384 L 384 16 L 16 16 Z M 16 384 "/>
<path fill="none" stroke-width="2.5" stroke-linecap="butt" stroke-linejoin="miter" stroke="rgb(0%, 0%, 0%)" stroke-opacity="0.8" stroke-miterlimit="2" d="M 283.636719 200 L 283.222656 191.671875 L 281.976563 183.429688 L 279.921875 175.347656 L 277.070313 167.511719 L 273.453125 160 L 269.105469 152.886719 L 264.070313 146.238281 L 258.398438 140.128906 L 252.144531 134.609375 L 245.375 129.742188 L 238.15625 125.574219 L 230.554688 122.144531 L 222.652344 119.488281 L 214.523438 117.632813 L 206.25 116.597656 L 197.914063 116.390625 L 189.601563 117.011719 L 181.390625 118.460938 L 173.363281 120.71875 L 165.601563 123.765625 L 158.183594 127.570313 L 151.179688 132.09375 L 144.660156 137.292969 L 138.691406 143.113281 L 133.332031 149.5 L 128.632813 156.390625 L 124.644531 163.710938 L 121.40625 171.394531 L 118.949219 179.363281 L 117.296875 187.535156 L 116.46875 195.832031 L 116.46875 204.167969 L 117.296875 212.464844 L 118.949219 220.636719 L 121.40625 228.605469 L 124.644531 236.289063 L 128.632813 243.609375 L 133.332031 250.5 L 138.691406 256.886719 L 144.660156 262.707031 L 151.179688 267.90625 L 158.183594 272.429688 L 165.601563 276.234375 L 173.363281 279.28125 L 181.390625 281.539063 L 189.601563 282.988281 L 197.914063 283.609375 L 206.25 283.402344 L 214.523438 282.367188 L 222.652344 280.511719 L 230.554688 277.855469 L 238.15625 274.425781 L 245.375 270.257813 L 252.144531 265.390625 L 258.398438 259.871094 L 264.070313 253.761719 L 269.105469 247.113281 L 273.453125 240 L 277.070313 232.488281 L 279.921875 224.652344 L 281.976563 216.570313 L 283.222656 208.328125 Z M 283.636719 200 "/>
<path fill="none" stroke-width="2.5" stroke-linecap="butt" stroke-linejoin="miter" stroke="rgb(0%, 0%, 0%)" stroke-opacity="0.8" stroke-miterlimit="2" d="M 367.273438 200 L 366.855469 191.671875 L 365.613281 183.429688 L 363.558594 175.347656 L 360.707031 167.511719 L 357.085938 160 L 352.738281 152.886719 L 347.707031 146.238281 L 342.035156 140.128906 L 335.78125 134.609375 L 329.011719 129.742188 L 321.792969 125.574219 L 314.191406 122.144531 L 306.289063 119.488281 L 298.160156 117.632813 L 289.886719 116.597656 L 281.550781 116.390625 L 273.238281 117.011719 L 265.027344 118.460938 L 257 120.71875 L 249.238281 123.765625 L 241.816406 127.570313 L 234.8125 132.09375 L 228.296875 137.292969 L 222.328125 143.113281 L 216.96875 149.5 L 212.269531 156.390625 L 208.28125 163.710938 L 205.042969 171.394531 L 202.585938 179.363281 L 200.933594 187.535156 L 200.105469 195.832031 L 200.105469 204.167969 L 200.933594 212.464844 L 202.585938 220.636719 L 205.042969 228.605469 L 208.28125 236.289063 L 212.269531 243.609375 L 216.96875 250.5 L 222.328125 256.886719 L 228.296875 262.707031 L 234.8125 267.90625 L 241.816406 272.429688 L 249.238281 276.234375 L 257 279.28125 L 265.027344 281.539063 L 273.238281 282.988281 L 281.550781 283.609375 L 289.886719 283.402344 L 298.160156 282.367188 L 306.289063 280.511719 L 314.191406 277.855469 L 321.792969 274.425781 L 329.011719 270.257813 L 335.78125 265.390625 L 342.035156 259.871094 L 347.707031 253.761719 L 352.738281 247.113281 L 357.085938 240 L 360.707031 232.488281 L 363.558594 224.652344 L 365.613281 216.570313 L 366.855469 208.328125 Z M 367.273438 200 "/>
<path fill="none" stroke-width="2.5" stroke-linecap="butt" stroke-linejoin="miter" stroke="rgb(0%, 0%, 0%)" stroke-opacity="0.8" stroke-miterlimit="2" d="M 325.453125 127.570313 L 325.039063 119.242188 L 323.796875 110.996094 L 321.738281 102.917969 L 318.886719 95.082031 L 315.269531 87.570313 L 310.921875 80.453125 L 305.886719 73.808594 L 300.214844 67.695313 L 293.964844 62.179688 L 287.195313 57.3125 L 279.972656 53.144531 L 272.375 49.714844 L 264.46875 47.058594 L 256.339844 45.203125 L 248.066406 44.167969 L 239.734375 43.957031 L 231.417969 44.582031 L 223.207031 46.03125 L 215.179688 48.289063 L 207.417969 51.332031 L 200 55.136719 L 192.996094 59.660156 L 186.476563 64.859375 L 180.507813 70.679688 L 175.148438 77.070313 L 170.453125 83.957031 L 166.464844 91.28125 L 163.226563 98.964844 L 160.769531 106.929688 L 159.117188 115.101563 L 158.285156 123.398438 L 158.285156 131.738281 L 159.117188 140.035156 L 160.769531 148.207031 L 163.226563 156.175781 L 166.464844 163.855469 L 170.453125 171.179688 L 175.148438 178.070313 L 180.507813 184.457031 L 186.476563 190.277344 L 192.996094 195.476563 L 200 200 L 207.417969 203.804688 L 215.179688 206.851563 L 223.207031 209.109375 L 231.417969 210.554688 L 239.734375 211.179688 L 248.066406 210.972656 L 256.339844 209.933594 L 264.46875 208.078125 L 272.375 205.421875 L 279.972656 201.996094 L 287.195313 197.824219 L 293.964844 192.957031 L 300.214844 187.441406 L 305.886719 181.328125 L 310.921875 174.683594 L 315.269531 167.566406 L 318.886719 160.054688 L 321.738281 152.222656 L 323.796875 144.140625 L 325.039063 135.894531 Z M 325.453125 127.570313 "/>
<path fill="none" stroke-width="2.5" stroke-linecap="butt" stroke-linejoin="miter" stroke="rgb(0%, 0%, 0%)" stroke-opacity="0.8" stroke-miterlimit="2" d="M 241.816406 127.570313 L 241.402344 119.242188 L 240.160156 110.996094 L 238.101563 102.917969 L 235.25 95.082031 L 231.632813 87.570313 L 227.285156 80.453125 L 222.25 73.808594 L 216.578125 67.695313 L 210.328125 62.179688 L 203.558594 57.3125 L 196.335938 53.144531 L 188.738281 49.714844 L 180.832031 47.058594 L 172.707031 45.203125 L 164.433594 44.167969 L 156.097656 43.957031 L 147.78125 44.582031 L 139.570313 46.03125 L 131.542969 48.289063 L 123.785156 51.332031 L 116.363281 55.136719 L 109.359375 59.660156 L 102.839844 64.859375 L 96.871094 70.679688 L 91.511719 77.070313 L 86.816406 83.957031 L 82.828125 91.28125 L 79.589844 98.964844 L 77.132813 106.929688 L 75.480469 115.101563 L 74.648438 123.398438 L 74.648438 131.738281 L 75.480469 140.035156 L 77.132813 148.207031 L 79.589844 156.175781 L 82.828125 163.855469 L 86.816406 171.179688 L 91.511719 178.070313 L 96.871094 184.457031 L 102.839844 190.277344 L 109.359375 195.476563 L 116.363281 200 L 123.785156 203.804688 L 131.542969 206.851563 L 139.570313 209.109375 L 147.78125 210.554688 L 156.097656 211.179688 L 164.433594 210.972656 L 172.707031 209.933594 L 180.832031 208.078125 L 188.738281 205.421875 L 196.335938 201.996094 L 203.558594 197.824219 L 210.328125 192.957031 L 216.578125 187.441406 L 222.25 181.328125 L 227.285156 174.683594 L 231.632813 167.566406 L 235.25 160.054688 L 238.101563 152.222656 L 240.160156 144.140625 L 241.402344 135.894531 Z M 241.816406 127.570313 "/>
<path fill="none" stroke-width="2.5" stroke-linecap="butt" stroke-linejoin="miter" stroke="rgb(0%, 0%, 0%)" stroke-opacity="0.8" stroke-miterlimit="2" d="M 200 200 L 199.585938 191.671875 L 198.339844 183.429688 L 196.285156 175.347656 L 193.433594 167.511719 L 189.816406 160 L 185.46875 152.886719 L 180.433594 146.238281 L 174.761719 140.128906 L 168.511719 134.609375 L 161.742188 129.742188 L 154.519531 125.574219 L 146.917969 122.144531 L 139.015625 119.488281 L 130.886719 117.632813 L 122.613281 116.597656 L 114.277344 116.390625 L 105.964844 117.011719 L 97.753906 118.460938 L 89.726563 120.71875 L 81.964844 123.765625 L 74.546875 127.570313 L 67.542969 132.09375 L 61.023438 137.292969 L 55.054688 143.113281 L 49.695313 149.5 L 44.996094 156.390625 L 41.011719 163.710938 L 37.769531 171.394531 L 35.3125 179.363281 L 33.660156 187.535156 L 32.832031 195.832031 L 32.832031 204.167969 L 33.660156 212.464844 L 35.3125 220.636719 L 37.769531 228.605469 L 41.011719 236.289063 L 44.996094 243.609375 L 49.695313 250.5 L 55.054688 256.886719 L 61.023438 262.707031 L 67.542969 267.90625 L 74.546875 272.429688 L 81.964844 276.234375 L 89.726563 279.28125 L 97.753906 281.539063 L 105.964844 282.988281 L 114.277344 283.609375 L 122.613281 283.402344 L 130.886719 282.367188 L 139.015625 280.511719 L 146.917969 277.855469 L 154.519531 274.425781 L 161.742188 270.257813 L 168.511719 265.390625 L 174.761719 259.871094 L 180.433594 253.761719 L 185.46875 247.113281 L 189.816406 240 L 193.433594 232.488281 L 196.285156 224.652344 L 198.339844 216.570313 L 199.585938 208.328125 Z M 200 200 "/>
<path fill="none" stroke-width="2.5" stroke-linecap="butt" stroke-linejoin="miter" stroke="rgb(0%, 0%, 0%)" stroke-opacity="0.8" stroke-miterlimit="2" d="M 241.816406 272.429688 L 241.402344 264.105469 L 240.160156 255.859375 L 238.101563 247.777344 L 235.25 239.945313 L 231.632813 232.433594 L 227.285156 225.316406 L 222.25 218.671875 L 216.578125 212.558594 L 210.328125 207.042969 L 203.558594 202.175781 L 196.335938 198.003906 L 188.738281 194.578125 L 180.832031 191.921875 L 172.707031 190.066406 L 164.433594 189.027344 L 156.097656 188.820313 L 147.78125 189.445313 L 139.570313 190.890625 L 131.542969 193.148438 L 123.785156 196.195313 L 116.363281 200 L 109.359375 204.523438 L 102.839844 209.722656 L 96.871094 215.542969 L 91.511719 221.929688 L 86.816406 228.820313 L 82.828125 236.144531 L 79.589844 243.824219 L 77.132813 251.792969 L 75.480469 259.964844 L 74.648438 268.261719 L 74.648438 276.601563 L 75.480469 284.898438 L 77.132813 293.070313 L 79.589844 301.035156 L 82.828125 308.71875 L 86.816406 316.042969 L 91.511719 322.929688 L 96.871094 329.320313 L 102.839844 335.140625 L 109.359375 340.339844 L 116.363281 344.863281 L 123.785156 348.667969 L 131.542969 351.710938 L 139.570313 353.96875 L 147.78125 355.417969 L 156.097656 356.042969 L 164.433594 355.832031 L 172.707031 354.796875 L 180.832031 352.941406 L 188.738281 350.285156 L 196.335938 346.855469 L 203.558594 342.6875 L 210.328125 337.820313 L 216.578125 332.304688 L 222.25 326.191406 L 227.285156 319.546875 L 231.632813 312.429688 L 235.25 304.917969 L 238.101563 297.082031 L 240.160156 289.003906 L 241.402344 280.757813 Z M 241.816406 272.429688 "/>
<path fill="none" stroke-width="2.5" stroke-linecap="butt" stroke-linejoin="miter" stroke="rgb(0%, 0%, 0%)" stroke-opacity="0.8" stroke-miterlimit="2" d="M 325.453125 272.429688 L 325.039063 264.105469 L 323.796875 255.859375 L 321.738281 247.777344 L 318.886719 239.945313 L 315.269531 232.433594 L 310.921875 225.316406 L 305.886719 218.671875 L 300.214844 212.558594 L 293.964844 207.042969 L 287.195313 202.175781 L 279.972656 198.003906 L 272.375 194.578125 L 264.46875 191.921875 L 256.339844 190.066406 L 248.066406 189.027344 L 239.734375 188.820313 L 231.417969 189.445313 L 223.207031 190.890625 L 215.179688 193.148438 L 207.417969 196.195313 L 200 200 L 192.996094 204.523438 L 186.476563 209.722656 L 180.507813 215.542969 L 175.148438 221.929688 L 170.453125 228.820313 L 166.464844 236.144531 L 163.226563 243.824219 L 160.769531 251.792969 L 159.117188 259.964844 L 158.285156 268.261719 L 158.285156 276.601563 L 159.117188 284.898438 L 160.769531 293.070313 L 163.226563 301.035156 L 166.464844 308.71875 L 170.453125 316.042969 L 175.148438 322.929688 L 180.507813 329.320313 L 186.476563 335.140625 L 192.996094 340.339844 L 200 344.863281 L 207.417969 348.667969 L 215.179688 351.710938 L 223.207031 353.96875 L 231.417969 355.417969 L 239.734375 356.042969 L 248.066406 355.832031 L 256.339844 354.796875 L 264.46875 352.941406 L 272.375 350.285156 L 279.972656 346.855469 L 287.195313 342.6875 L 293.964844 337.820313 L 300.214844 332.304688 L 305.886719 326.191406 L 310.921875 319.546875 L 315.269531 312.429688 L 318.886719 304.917969 L 321.738281 297.082031 L 323.796875 289.003906 L 325.039063 280.757813 Z M 325.453125 272.429688 "/>
</svg>
