<?xml version="1.0" encoding="UTF-8"?>
<svg xmlns="http://www.w3.org/2000/svg" xmlns:xlink="http://www.w3.org/1999/xlink" width="400" height="400" viewBox="0 0 400 400">
<rect x="-40" y="-40" width="480" height="480" fill="rgb(100%, 100%, 100%)" fill-opacity="1"/>
<path fill-rule="nonzero" fill="rgb(100%, 100%, 100%)" fill-opacity="1" d="M 74 384 L 326 384 L 326 16 L 74 16 Z M 74 384 "/>
<path fill="none" stroke-width="2.5" stroke-linecap="round" stroke-linejoin="round" stroke="rgb(0%, 0%, 0%)" stroke-opacity="0.8" stroke-miterlimit="2" d="M 314.546875 257.5 L 314.542969 256.496094 L 314.527344 255.488281 L 314.507812 254.484375 L 314.476562 253.480469 L 314.4375 252.476562 L 314.386719 251.472656 L 314.332031 250.46875 L 314.265625 249.46875 L 314.191406 248.464844 L 314.109375 247.464844 L 314.015625 246.460938 L 313.917969 245.460938 L 313.808594 244.464844 L 313.6875 243.464844 L 313.5625 242.46875 L 313.425781 241.472656 L 313.285156 240.476562 L 313.132812 239.484375 L 312.96875 238.492188 L 312.800781 237.503906 L 312.621094 236.515625 L 312.433594 235.527344 L 312.238281 234.542969 L 312.035156 233.558594 L 311.824219 232.574219 L 311.601562 231.59375 L 311.371094 230.617188 L 311.132812 229.640625 L 310.886719 228.667969 L 310.632812 227.695312 L 310.367188 226.726562 L 310.097656 225.757812 L 309.816406 224.792969 L 309.527344 223.832031 L 309.230469 222.871094 L 308.921875 221.914062 L 308.609375 220.960938 L 308.289062 220.007812 L 307.957031 219.0625 L 307.617188 218.113281 L 307.273438 217.171875 L 306.917969 216.234375 L 306.554688 215.296875 L 306.183594 214.363281 L 305.800781 213.433594 L 305.414062 212.507812 L 305.019531 211.582031 L 304.617188 210.664062 L 304.203125 209.75 L 303.785156 208.835938 L 303.355469 207.925781 L 302.921875 207.023438 L 302.476562 206.121094 L 302.027344 205.222656 L 301.566406 204.332031 L 301.101562 203.441406 L 300.625 202.558594 L 300.144531 201.675781 L 299.65625 200.800781 L 299.15625 199.925781 L 298.652344 199.058594 L 298.140625 198.195312 L 297.621094 197.335938 L 297.09375 196.484375 L 296.558594 195.632812 L 296.015625 194.789062 L 295.464844 193.949219 L 294.910156 193.113281 L 294.34375 192.285156 L 293.773438 191.457031 L 293.195312 190.636719 L 292.609375 189.824219 L 292.019531 189.011719 L 291.417969 188.207031 L 290.8125 187.410156 L 290.199219 186.617188 L 289.578125 185.828125 L 288.949219 185.042969 L 288.316406 184.265625 L 287.675781 183.492188 L 287.027344 182.726562 L 286.375 181.96875 L 285.714844 181.210938 L 285.046875 180.460938 L 284.371094 179.71875 L 283.691406 178.984375 L 283.003906 178.25 L 282.3125 177.527344 L 281.613281 176.808594 L 280.90625 176.09375 L 280.195312 175.386719 L 279.476562 174.6875 L 278.753906 173.992188 L 278.023438 173.304688 L 277.289062 172.625 L 276.546875 171.949219 L 275.800781 171.28125 L 275.046875 170.617188 L 274.285156 169.964844 L 273.523438 169.316406 L 272.75 168.671875 L 271.976562 168.039062 L 271.195312 167.410156 L 270.40625 166.789062 L 269.613281 166.175781 L 268.816406 165.566406 L 268.015625 164.96875 L 267.207031 164.375 L 266.394531 163.789062 L 265.574219 163.210938 L 264.753906 162.636719 L 263.925781 162.074219 L 263.089844 161.515625 L 262.253906 160.964844 L 261.410156 160.425781 L 260.5625 159.890625 L 259.710938 159.359375 L 258.855469 158.839844 L 257.992188 158.328125 L 257.128906 157.824219 L 256.257812 157.324219 L 255.382812 156.835938 L 254.507812 156.355469 L 253.625 155.878906 L 252.738281 155.414062 L 251.847656 154.953125 L 250.953125 154.503906 L 250.054688 154.058594 L 249.152344 153.625 L 248.246094 153.199219 L 247.335938 152.777344 L 246.421875 152.367188 L 245.503906 151.964844 L 244.585938 151.570312 L 243.660156 151.183594 L 242.734375 150.804688 L 241.804688 150.433594 L 240.871094 150.070312 L 239.933594 149.714844 L 238.992188 149.367188 L 238.050781 149.03125 L 237.105469 148.699219 L 236.15625 148.378906 L 235.207031 148.066406 L 234.253906 147.761719 L 233.296875 147.464844 L 232.335938 147.175781 L 231.375 146.898438 L 230.410156 146.628906 L 229.445312 146.363281 L 228.476562 146.109375 L 227.507812 145.863281 L 226.535156 145.628906 L 225.558594 145.398438 L 224.582031 145.179688 L 223.601562 144.96875 L 222.621094 144.765625 L 221.640625 144.570312 L 220.65625 144.386719 L 219.671875 144.207031 L 218.683594 144.039062 L 217.695312 143.878906 L 216.707031 143.730469 L 215.714844 143.585938 L 214.722656 143.453125 L 213.730469 143.328125 L 212.734375 143.214844 L 211.742188 143.105469 L 210.746094 143.007812 L 209.746094 142.917969 L 208.75 142.835938 L 207.75 142.761719 L 206.753906 142.699219 L 205.753906 142.644531 L 204.753906 142.597656 L 203.753906 142.5625 L 202.753906 142.535156 L 201.75 142.511719 L 200.75 142.503906 L 199.75 142.5 L 198.75 142.507812 L 197.746094 142.523438 L 196.746094 142.546875 L 195.746094 142.578125 L 194.746094 142.621094 L 193.746094 142.671875 L 192.746094 142.730469 L 191.75 142.796875 L 190.75 142.875 L 189.753906 142.960938 L 188.757812 143.054688 L 187.761719 143.160156 L 186.765625 143.269531 L 185.773438 143.390625 L 184.78125 143.519531 L 183.789062 143.65625 L 182.796875 143.804688 L 181.808594 143.960938 L 180.820312 144.125 L 179.835938 144.296875 L 178.851562 144.476562 L 177.867188 144.667969 L 176.886719 144.867188 L 175.90625 145.074219 L 174.929688 145.289062 L 173.953125 145.511719 L 172.980469 145.746094 L 172.007812 145.988281 L 171.039062 146.238281 L 170.070312 146.496094 L 169.105469 146.761719 L 168.144531 147.035156 L 167.183594 147.320312 L 166.226562 147.613281 L 165.269531 147.914062 L 164.316406 148.222656 L 163.367188 148.539062 L 162.421875 148.863281 L 161.476562 149.199219 L 160.535156 149.539062 L 159.597656 149.890625 L 158.664062 150.25 L 157.730469 150.617188 L 156.800781 150.992188 L 155.875 151.375 L 154.953125 151.765625 L 154.035156 152.164062 L 153.121094 152.570312 L 152.210938 152.988281 L 151.300781 153.410156 L 150.398438 153.84375 L 149.496094 154.28125 L 148.601562 154.726562 L 147.707031 155.183594 L 146.820312 155.644531 L 145.933594 156.117188 L 145.054688 156.59375 L 144.179688 157.082031 L 143.304688 157.574219 L 142.4375 158.074219 L 141.574219 158.582031 L 140.714844 159.101562 L 139.863281 159.625 L 139.011719 160.15625 L 138.167969 160.695312 L 137.328125 161.242188 L 136.492188 161.792969 L 135.660156 162.355469 L 134.835938 162.921875 L 134.015625 163.5 L 133.199219 164.082031 L 132.390625 164.671875 L 131.582031 165.265625 L 130.78125 165.871094 L 129.988281 166.480469 L 129.199219 167.097656 L 128.414062 167.722656 L 127.636719 168.355469 L 126.863281 168.992188 L 126.09375 169.636719 L 125.332031 170.289062 L 124.578125 170.949219 L 123.828125 171.613281 L 123.082031 172.285156 L 122.34375 172.964844 L 121.609375 173.648438 L 120.882812 174.339844 L 120.164062 175.035156 L 119.449219 175.738281 L 118.738281 176.449219 L 118.035156 177.164062 L 117.339844 177.886719 L 116.652344 178.617188 L 115.96875 179.351562 L 115.289062 180.089844 L 114.621094 180.835938 L 113.957031 181.589844 L 113.296875 182.347656 L 112.648438 183.109375 L 112.003906 183.878906 L 111.367188 184.652344 L 110.734375 185.433594 L 110.113281 186.21875 L 109.496094 187.011719 L 108.882812 187.808594 L 108.28125 188.609375 L 107.683594 189.417969 L 107.097656 190.230469 L 106.515625 191.046875 L 105.9375 191.871094 L 105.371094 192.699219 L 104.8125 193.53125 L 104.257812 194.367188 L 103.710938 195.210938 L 103.171875 196.058594 L 102.640625 196.910156 L 102.117188 197.765625 L 101.601562 198.628906 L 101.09375 199.492188 L 100.59375 200.363281 L 100.097656 201.238281 L 99.613281 202.117188 L 99.136719 203 L 98.664062 203.886719 L 98.203125 204.777344 L 97.746094 205.671875 L 97.300781 206.570312 L 96.859375 207.472656 L 96.429688 208.378906 L 96.003906 209.292969 L 95.589844 210.207031 L 95.183594 211.125 L 94.78125 212.042969 L 94.390625 212.96875 L 94.007812 213.898438 L 93.632812 214.828125 L 93.265625 215.765625 L 92.90625 216.703125 L 92.554688 217.644531 L 92.210938 218.585938 L 91.875 219.535156 L 91.550781 220.484375 L 91.230469 221.4375 L 90.921875 222.394531 L 90.621094 223.351562 L 90.328125 224.3125 L 90.042969 225.277344 L 89.765625 226.242188 L 89.5 227.210938 L 89.238281 228.179688 L 88.988281 229.152344 L 88.746094 230.128906 L 88.511719 231.105469 L 88.285156 232.085938 L 88.070312 233.066406 L 87.863281 234.050781 L 87.660156 235.035156 L 87.46875 236.019531 L 87.289062 237.007812 L 87.113281 237.996094 L 86.949219 238.988281 L 86.792969 239.980469 L 86.644531 240.976562 L 86.503906 241.96875 L 86.371094 242.96875 L 86.25 243.964844 L 86.136719 244.964844 L 86.03125 245.960938 L 85.9375 246.960938 L 85.847656 247.964844 L 85.769531 248.964844 L 85.699219 249.96875 L 85.640625 250.972656 L 85.585938 251.976562 L 85.542969 252.980469 L 85.507812 253.984375 L 85.480469 254.988281 L 85.464844 255.992188 L 85.457031 256.996094 L 85.457031 258.003906 L 85.464844 259.007812 L 85.480469 260.011719 L 85.507812 261.015625 L 85.542969 262.019531 L 85.585938 263.023438 L 85.640625 264.027344 L 85.699219 265.03125 L 85.769531 266.035156 L 85.847656 267.035156 L 85.9375 268.039062 L 86.03125 269.039062 L 86.136719 270.035156 L 86.25 271.035156 L 86.371094 272.03125 L 86.503906 273.03125 L 86.644531 274.023438 L 86.792969 275.019531 L 86.949219 276.011719 L 87.113281 277.003906 L 87.289062 277.992188 L 87.46875 278.980469 L 87.660156 279.964844 L 87.863281 280.949219 L 88.070312 281.933594 L 88.285156 282.914062 L 88.511719 283.894531 L 88.746094 284.871094 L 88.988281 285.847656 L 89.238281 286.820312 L 89.5 287.789062 L 89.765625 288.757812 L 90.042969 289.722656 L 90.328125 290.6875 L 90.621094 291.648438 L 90.921875 292.605469 L 91.230469 293.5625 L 91.550781 294.515625 L 91.875 295.464844 L 92.210938 296.414062 L 92.554688 297.355469 L 92.90625 298.296875 L 93.265625 299.234375 L 93.632812 300.171875 L 94.007812 301.101562 L 94.390625 302.03125 L 94.78125 302.957031 L 95.183594 303.875 L 95.589844 304.792969 L 96.003906 305.707031 L 96.429688 306.617188 L 96.859375 307.527344 L 97.300781 308.429688 L 97.746094 309.328125 L 98.203125 310.222656 L 98.664062 311.113281 L 99.136719 312 L 99.613281 312.882812 L 100.097656 313.761719 L 100.59375 314.636719 L 101.09375 315.507812 L 101.601562 316.371094 L 102.117188 317.234375 L 102.640625 318.089844 L 103.171875 318.941406 L 103.710938 319.789062 L 104.257812 320.632812 L 104.8125 321.46875 L 105.371094 322.300781 L 105.9375 323.128906 L 106.515625 323.953125 L 107.097656 324.769531 L 107.683594 325.582031 L 108.28125 326.390625 L 108.882812 327.191406 L 109.496094 327.988281 L 110.113281 328.78125 L 110.734375 329.566406 L 111.367188 330.347656 L 112.003906 331.121094 L 112.648438 331.890625 L 113.296875 332.652344 L 113.957031 333.410156 L 114.621094 334.164062 L 115.289062 334.910156 L 115.96875 335.648438 L 116.652344 336.382812 L 117.339844 337.113281 L 118.035156 337.835938 L 118.738281 338.550781 L 119.449219 339.261719 L 120.164062 339.964844 L 120.882812 340.660156 L 121.609375 341.351562 L 122.34375 342.035156 L 123.082031 342.714844 L 123.828125 343.386719 L 124.578125 344.050781 L 125.332031 344.710938 L 126.09375 345.363281 L 126.863281 346.007812 L 127.636719 346.644531 L 128.414062 347.277344 L 129.199219 347.902344 L 129.988281 348.519531 L 130.78125 349.128906 L 131.582031 349.734375 L 132.390625 350.328125 L 133.199219 350.917969 L 134.015625 351.5 L 134.835938 352.078125 L 135.660156 352.644531 L 136.492188 353.207031 L 137.328125 353.757812 L 138.167969 354.304688 L 139.011719 354.84375 L 139.863281 355.375 L 140.714844 355.898438 L 141.574219 356.417969 L 142.4375 356.925781 L 143.304688 357.425781 L 144.179688 357.917969 L 145.054688 358.40625 L 145.933594 358.882812 L 146.820312 359.355469 L 147.707031 359.816406 L 148.601562 360.273438 L 149.496094 360.71875 L 150.398438 361.15625 L 151.300781 361.589844 L 152.210938 362.011719 L 153.121094 362.429688 L 154.035156 362.835938 L 154.953125 363.234375 L 155.875 363.625 L 156.800781 364.007812 L 157.730469 364.382812 L 158.664062 364.75 L 159.597656 365.109375 L 160.535156 365.460938 L 161.476562 365.800781 L 162.421875 366.136719 L 163.367188 366.460938 L 164.316406 366.777344 L 165.269531 367.085938 L 166.226562 367.386719 L 167.183594 367.679688 L 168.144531 367.964844 L 169.105469 368.238281 L 170.070312 368.503906 L 171.039062 368.761719 L 172.007812 369.011719 L 172.980469 369.253906 L 173.953125 369.488281 L 174.929688 369.710938 L 175.90625 369.925781 L 176.886719 370.132812 L 177.867188 370.332031 L 178.851562 370.523438 L 179.835938 370.703125 L 180.820312 370.875 L 181.808594 371.039062 L 182.796875 371.195312 L 183.789062 371.34375 L 184.78125 371.480469 L 185.773438 371.609375 L 186.765625 371.730469 L 187.761719 371.839844 L 188.757812 371.945312 L 189.753906 372.039062 L 190.75 372.125 L 191.75 372.203125 L 192.746094 372.269531 L 193.746094 372.328125 L 194.746094 372.378906 L 195.746094 372.421875 L 196.746094 372.453125 L 197.746094 372.476562 L 198.75 372.492188 L 199.75 372.5 L 200.75 372.496094 L 201.75 372.488281 L 202.753906 372.46875 L 203.753906 372.4375 L 204.753906 372.402344 L 205.753906 372.355469 L 206.753906 372.300781 L 207.75 372.238281 L 208.75 372.164062 L 209.746094 372.082031 L 210.746094 371.992188 L 211.742188 371.894531 L 212.734375 371.785156 L 213.730469 371.671875 L 214.722656 371.546875 L 215.714844 371.414062 L 216.707031 371.269531 L 217.695312 371.121094 L 218.683594 370.960938 L 219.671875 370.792969 L 220.65625 370.613281 L 221.640625 370.429688 L 222.621094 370.234375 L 223.601562 370.03125 L 224.582031 369.820312 L 225.558594 369.601562 L 226.535156 369.371094 L 227.507812 369.136719 L 228.476562 368.890625 L 229.445312 368.636719 L 230.410156 368.371094 L 231.375 368.101562 L 232.335938 367.824219 L 233.296875 367.535156 L 234.253906 367.238281 L 235.207031 366.933594 L 236.15625 366.621094 L 237.105469 366.300781 L 238.050781 365.96875 L 238.992188 365.632812 L 239.933594 365.285156 L 240.871094 364.929688 L 241.804688 364.566406 L 242.734375 364.195312 L 243.660156 363.816406 L 244.585938 363.429688 L 245.503906 363.035156 L 246.421875 362.632812 L 247.335938 362.222656 L 248.246094 361.800781 L 249.152344 361.375 L 250.054688 360.941406 L 250.953125 360.496094 L 251.847656 360.046875 L 252.738281 359.585938 L 253.625 359.121094 L 254.507812 358.644531 L 255.382812 358.164062 L 256.257812 357.675781 L 257.128906 357.175781 L 257.992188 356.671875 L 258.855469 356.160156 L 259.710938 355.640625 L 260.5625 355.109375 L 261.410156 354.578125 L 262.253906 354.035156 L 263.089844 353.484375 L 263.925781 352.925781 L 264.753906 352.363281 L 265.574219 351.789062 L 266.394531 351.210938 L 267.207031 350.625 L 268.015625 350.03125 L 268.816406 349.433594 L 269.613281 348.824219 L 270.40625 348.210938 L 271.195312 347.589844 L 271.976562 346.960938 L 272.75 346.328125 L 273.523438 345.683594 L 274.285156 345.035156 L 275.046875 344.382812 L 275.800781 343.71875 L 276.546875 343.050781 L 277.289062 342.375 L 278.023438 341.695312 L 278.753906 341.007812 L 279.476562 340.3125 L 280.195312 339.613281 L 280.90625 338.90625 L 281.613281 338.191406 L 282.3125 337.472656 L 283.003906 336.75 L 283.691406 336.015625 L 284.371094 335.28125 L 285.046875 334.539062 L 285.714844 333.789062 L 286.375 333.03125 L 287.027344 332.273438 L 287.675781 331.507812 L 288.316406 330.734375 L 288.949219 329.957031 L 289.578125 329.171875 L 290.199219 328.382812 L 290.8125 327.589844 L 291.417969 326.792969 L 292.019531 325.988281 L 292.609375 325.175781 L 293.195312 324.363281 L 293.773438 323.542969 L 294.34375 322.714844 L 294.910156 321.886719 L 295.464844 321.050781 L 296.015625 320.210938 L 296.558594 319.367188 L 297.09375 318.515625 L 297.621094 317.664062 L 298.140625 316.804688 L 298.652344 315.941406 L 299.15625 315.074219 L 299.65625 314.199219 L 300.144531 313.324219 L 300.625 312.441406 L 301.101562 311.558594 L 301.566406 310.667969 L 302.027344 309.777344 L 302.476562 308.878906 L 302.921875 307.976562 L 303.355469 307.074219 L 303.785156 306.164062 L 304.203125 305.25 L 304.617188 304.335938 L 305.019531 303.417969 L 305.414062 302.492188 L 305.800781 301.566406 L 306.183594 300.636719 L 306.554688 299.703125 L 306.917969 298.765625 L 307.273438 297.828125 L 307.617188 296.886719 L 307.957031 295.9375 L 308.289062 294.992188 L 308.609375 294.039062 L 308.921875 293.085938 L 309.230469 292.128906 L 309.527344 291.167969 L 309.816406 290.207031 L 310.097656 289.242188 L 310.367188 288.273438 L 310.632812 287.304688 L 310.886719 286.332031 L 311.132812 285.359375 L 311.371094 284.382812 L 311.601562 283.40625 L 311.824219 282.425781 L 312.035156 281.441406 L 312.238281 280.457031 L 312.433594 279.472656 L 312.621094 278.484375 L 312.800781 277.496094 L 312.96875 276.507812 L 313.132812 275.515625 L 313.285156 274.523438 L 313.425781 273.527344 L 313.5625 272.53125 L 313.6875 271.535156 L 313.808594 270.535156 L 313.917969 269.539062 L 314.015625 268.539062 L 314.109375 267.535156 L 314.191406 266.535156 L 314.265625 265.53125 L 314.332031 264.53125 L 314.386719 263.527344 L 314.4375 262.523438 L 314.476562 261.519531 L 314.507812 260.515625 L 314.527344 259.511719 L 314.542969 258.503906 Z M 314.546875 257.5 "/>
<path fill="none" stroke-width="2.5" stroke-linecap="round" stroke-linejoin="round" stroke="rgb(0%, 0%, 0%)" stroke-opacity="0.8" stroke-miterlimit="2" d="M 314.546875 142.5 L 314.542969 141.496094 L 314.527344 140.488281 L 314.507812 139.484375 L 314.476562 138.480469 L 314.4375 137.476562 L 314.386719 136.472656 L 314.332031 135.46875 L 314.265625 134.46875 L 314.191406 133.464844 L 314.109375 132.464844 L 314.015625 131.460938 L 313.917969 130.460938 L 313.808594 129.464844 L 313.6875 128.464844 L 313.5625 127.46875 L 313.425781 126.472656 L 313.285156 125.476562 L 313.132812 124.484375 L 312.96875 123.492188 L 312.800781 122.503906 L 312.621094 121.515625 L 312.433594 120.527344 L 312.238281 119.542969 L 312.035156 118.558594 L 311.824219 117.574219 L 311.601562 116.59375 L 311.371094 115.617188 L 311.132812 114.640625 L 310.886719 113.667969 L 310.632812 112.695312 L 310.367188 111.726562 L 310.097656 110.757812 L 309.816406 109.792969 L 309.527344 108.832031 L 309.230469 107.871094 L 308.921875 106.914062 L 308.609375 105.960938 L 308.289062 105.007812 L 307.957031 104.0625 L 307.617188 103.113281 L 307.273438 102.171875 L 306.917969 101.234375 L 306.554688 100.296875 L 306.183594 99.363281 L 305.800781 98.433594 L 305.414062 97.507812 L 305.019531 96.582031 L 304.617188 95.664062 L 304.203125 94.75 L 303.785156 93.835938 L 303.355469 92.925781 L 302.921875 92.023438 L 302.476562 91.121094 L 302.027344 90.222656 L 301.566406 89.332031 L 301.101562 88.441406 L 300.625 87.558594 L 300.144531 86.675781 L 299.65625 85.800781 L 299.15625 84.925781 L 298.652344 84.058594 L 298.140625 83.195312 L 297.621094 82.335938 L 297.09375 81.484375 L 296.558594 80.632812 L 296.015625 79.789062 L 295.464844 78.949219 L 294.910156 78.113281 L 294.34375 77.285156 L 293.773438 76.457031 L 293.195312 75.636719 L 292.609375 74.824219 L 292.019531 74.011719 L 291.417969 73.207031 L 290.8125 72.410156 L 290.199219 71.617188 L 289.578125 70.828125 L 288.949219 70.042969 L 288.316406 69.265625 L 287.675781 68.492188 L 287.027344 67.726562 L 286.375 66.96875 L 285.714844 66.210938 L 285.046875 65.460938 L 284.371094 64.71875 L 283.691406 63.984375 L 283.003906 63.25 L 282.3125 62.527344 L 281.613281 61.808594 L 280.90625 61.09375 L 280.195312 60.386719 L 279.476562 59.6875 L 278.753906 58.992188 L 278.023438 58.304688 L 277.289062 57.625 L 276.546875 56.949219 L 275.800781 56.28125 L 275.046875 55.617188 L 274.285156 54.964844 L 273.523438 54.316406 L 272.75 53.671875 L 271.976562 53.039062 L 271.195312 52.410156 L 270.40625 51.789062 L 269.613281 51.175781 L 268.816406 50.566406 L 268.015625 49.96875 L 267.207031 49.375 L 266.394531 48.789062 L 265.574219 48.210938 L 264.753906 47.636719 L 263.925781 47.074219 L 263.089844 46.515625 L 262.253906 45.964844 L 261.410156 45.421875 L 260.5625 44.890625 L 259.710938 44.359375 L 258.855469 43.839844 L 257.992188 43.328125 L 257.128906 42.824219 L 256.257812 42.324219 L 255.382812 41.835938 L 254.507812 41.355469 L 253.625 40.878906 L 252.738281 40.414062 L 251.847656 39.953125 L 250.953125 39.503906 L 250.054688 39.058594 L 249.152344 38.625 L 248.246094 38.199219 L 247.335938 37.777344 L 246.421875 37.367188 L 245.503906 36.964844 L 244.585938 36.570312 L 243.660156 36.183594 L 242.734375 35.804688 L 241.804688 35.433594 L 240.871094 35.070312 L 239.933594 34.714844 L 238.992188 34.367188 L 238.050781 34.03125 L 237.105469 33.699219 L 236.15625 33.378906 L 235.207031 33.066406 L 234.253906 32.761719 L 233.296875 32.464844 L 232.335938 32.175781 L 231.375 31.898438 L 230.410156 31.628906 L 229.445312 31.363281 L 228.476562 31.109375 L 227.507812 30.863281 L 226.535156 30.628906 L 225.558594 30.398438 L 224.582031 30.179688 L 223.601562 29.96875 L 222.621094 29.765625 L 221.640625 29.570312 L 220.65625 29.386719 L 219.671875 29.207031 L 218.683594 29.039062 L 217.695312 28.878906 L 216.707031 28.730469 L 215.714844 28.585938 L 214.722656 28.453125 L 213.730469 28.328125 L 212.734375 28.214844 L 211.742188 28.105469 L 210.746094 28.007812 L 209.746094 27.917969 L 208.75 27.835938 L 207.75 27.761719 L 206.753906 27.699219 L 205.753906 27.644531 L 204.753906 27.597656 L 203.753906 27.5625 L 202.753906 27.53125 L 201.75 27.511719 L 200.75 27.503906 L 199.75 27.5 L 198.75 27.507812 L 197.746094 27.523438 L 196.746094 27.546875 L 195.746094 27.578125 L 194.746094 27.621094 L 193.746094 27.671875 L 192.746094 27.730469 L 191.75 27.796875 L 190.75 27.875 L 189.753906 27.960938 L 188.757812 28.054688 L 187.761719 28.160156 L 186.765625 28.269531 L 185.773438 28.390625 L 184.78125 28.519531 L 183.789062 28.65625 L 182.796875 28.804688 L 181.808594 28.960938 L 180.820312 29.125 L 179.835938 29.296875 L 178.851562 29.476562 L 177.867188 29.667969 L 176.886719 29.867188 L 175.90625 30.074219 L 174.929688 30.289062 L 173.953125 30.511719 L 172.980469 30.746094 L 172.007812 30.988281 L 171.039062 31.238281 L 170.070312 31.496094 L 169.105469 31.761719 L 168.144531 32.035156 L 167.183594 32.320312 L 166.226562 32.613281 L 165.269531 32.914062 L 164.316406 33.222656 L 163.367188 33.539062 L 162.421875 33.863281 L 161.476562 34.199219 L 160.535156 34.539062 L 159.597656 34.890625 L 158.664062 35.25 L 157.730469 35.617188 L 156.800781 35.992188 L 155.875 36.375 L 154.953125 36.765625 L 154.035156 37.164062 L 153.121094 37.570312 L 152.210938 37.988281 L 151.300781 38.410156 L 150.398438 38.84375 L 149.496094 39.28125 L 148.601562 39.726562 L 147.707031 40.183594 L 146.820312 40.644531 L 145.933594 41.117188 L 145.054688 41.59375 L 144.179688 42.082031 L 143.304688 42.574219 L 142.4375 43.074219 L 141.574219 43.582031 L 140.714844 44.101562 L 139.863281 44.625 L 139.011719 45.15625 L 138.167969 45.695312 L 137.328125 46.242188 L 136.492188 46.792969 L 135.660156 47.355469 L 134.835938 47.921875 L 134.015625 48.5 L 133.199219 49.082031 L 132.390625 49.671875 L 131.582031 50.265625 L 130.78125 50.871094 L 129.988281 51.480469 L 129.199219 52.097656 L 128.414062 52.722656 L 127.636719 53.355469 L 126.863281 53.992188 L 126.09375 54.636719 L 125.332031 55.289062 L 124.578125 55.949219 L 123.828125 56.613281 L 123.082031 57.285156 L 122.34375 57.964844 L 121.609375 58.648438 L 120.882812 59.339844 L 120.164062 60.035156 L 119.449219 60.738281 L 118.738281 61.449219 L 118.035156 62.164062 L 117.339844 62.886719 L 116.652344 63.617188 L 115.96875 64.351562 L 115.289062 65.089844 L 114.621094 65.835938 L 113.957031 66.589844 L 113.296875 67.347656 L 112.648438 68.109375 L 112.003906 68.878906 L 111.367188 69.652344 L 110.734375 70.433594 L 110.113281 71.21875 L 109.496094 72.011719 L 108.882812 72.808594 L 108.28125 73.609375 L 107.683594 74.417969 L 107.097656 75.230469 L 106.515625 76.046875 L 105.9375 76.871094 L 105.371094 77.699219 L 104.8125 78.53125 L 104.257812 79.367188 L 103.710938 80.210938 L 103.171875 81.058594 L 102.640625 81.910156 L 102.117188 82.765625 L 101.601562 83.628906 L 101.09375 84.492188 L 100.59375 85.363281 L 100.097656 86.238281 L 99.613281 87.117188 L 99.136719 88 L 98.664062 88.886719 L 98.203125 89.777344 L 97.746094 90.671875 L 97.300781 91.570312 L 96.859375 92.472656 L 96.429688 93.378906 L 96.003906 94.292969 L 95.589844 95.207031 L 95.183594 96.125 L 94.78125 97.042969 L 94.390625 97.96875 L 94.007812 98.898438 L 93.632812 99.828125 L 93.265625 100.765625 L 92.90625 101.703125 L 92.554688 102.644531 L 92.210938 103.585938 L 91.875 104.535156 L 91.550781 105.484375 L 91.230469 106.4375 L 90.921875 107.394531 L 90.621094 108.351562 L 90.328125 109.3125 L 90.042969 110.277344 L 89.765625 111.242188 L 89.5 112.210938 L 89.238281 113.179688 L 88.988281 114.152344 L 88.746094 115.128906 L 88.511719 116.105469 L 88.285156 117.085938 L 88.070312 118.066406 L 87.863281 119.050781 L 87.660156 120.035156 L 87.46875 121.019531 L 87.289062 122.007812 L 87.113281 122.996094 L 86.949219 123.988281 L 86.792969 124.980469 L 86.644531 125.976562 L 86.503906 126.96875 L 86.371094 127.96875 L 86.25 128.964844 L 86.136719 129.964844 L 86.03125 130.960938 L 85.9375 131.960938 L 85.847656 132.964844 L 85.769531 133.964844 L 85.699219 134.96875 L 85.640625 135.972656 L 85.585938 136.976562 L 85.542969 137.980469 L 85.507812 138.984375 L 85.480469 139.988281 L 85.464844 140.992188 L 85.457031 141.996094 L 85.457031 143.003906 L 85.464844 144.007812 L 85.480469 145.011719 L 85.507812 146.015625 L 85.542969 147.019531 L 85.585938 148.023438 L 85.640625 149.027344 L 85.699219 150.03125 L 85.769531 151.035156 L 85.847656 152.035156 L 85.9375 153.039062 L 86.03125 154.039062 L 86.136719 155.035156 L 86.25 156.035156 L 86.371094 157.03125 L 86.503906 158.03125 L 86.644531 159.023438 L 86.792969 160.019531 L 86.949219 161.011719 L 87.113281 162.003906 L 87.289062 162.992188 L 87.46875 163.980469 L 87.660156 164.964844 L 87.863281 165.949219 L 88.070312 166.933594 L 88.285156 167.914062 L 88.511719 168.894531 L 88.746094 169.871094 L 88.988281 170.847656 L 89.238281 171.820312 L 89.5 172.789062 L 89.765625 173.757812 L 90.042969 174.722656 L 90.328125 175.6875 L 90.621094 176.648438 L 90.921875 177.605469 L 91.230469 178.5625 L 91.550781 179.515625 L 91.875 180.464844 L 92.210938 181.414062 L 92.554688 182.355469 L 92.90625 183.296875 L 93.265625 184.234375 L 93.632812 185.171875 L 94.007812 186.101562 L 94.390625 187.03125 L 94.78125 187.957031 L 95.183594 188.875 L 95.589844 189.792969 L 96.003906 190.707031 L 96.429688 191.621094 L 96.859375 192.527344 L 97.300781 193.429688 L 97.746094 194.328125 L 98.203125 195.222656 L 98.664062 196.113281 L 99.136719 197 L 99.613281 197.882812 L 100.097656 198.761719 L 100.59375 199.636719 L 101.09375 200.507812 L 101.601562 201.371094 L 102.117188 202.234375 L 102.640625 203.089844 L 103.171875 203.941406 L 103.710938 204.789062 L 104.257812 205.632812 L 104.8125 206.46875 L 105.371094 207.300781 L 105.9375 208.128906 L 106.515625 208.953125 L 107.097656 209.769531 L 107.683594 210.582031 L 108.28125 211.390625 L 108.882812 212.191406 L 109.496094 212.988281 L 110.113281 213.78125 L 110.734375 214.566406 L 111.367188 215.347656 L 112.003906 216.121094 L 112.648438 216.890625 L 113.296875 217.652344 L 113.957031 218.410156 L 114.621094 219.164062 L 115.289062 219.910156 L 115.96875 220.648438 L 116.652344 221.382812 L 117.339844 222.113281 L 118.035156 222.835938 L 118.738281 223.550781 L 119.449219 224.261719 L 120.164062 224.964844 L 120.882812 225.660156 L 121.609375 226.351562 L 122.34375 227.035156 L 123.082031 227.714844 L 123.828125 228.386719 L 124.578125 229.050781 L 125.332031 229.710938 L 126.09375 230.363281 L 126.863281 231.007812 L 127.636719 231.644531 L 128.414062 232.277344 L 129.199219 232.902344 L 129.988281 233.519531 L 130.78125 234.128906 L 131.582031 234.734375 L 132.390625 235.328125 L 133.199219 235.917969 L 134.015625 236.5 L 134.835938 237.078125 L 135.660156 237.644531 L 136.492188 238.207031 L 137.328125 238.757812 L 138.167969 239.304688 L 139.011719 239.84375 L 139.863281 240.375 L 140.714844 240.898438 L 141.574219 241.417969 L 142.4375 241.925781 L 143.304688 242.425781 L 144.179688 242.917969 L 145.054688 243.40625 L 145.933594 243.882812 L 146.820312 244.355469 L 147.707031 244.816406 L 148.601562 245.273438 L 149.496094 245.71875 L 150.398438 246.15625 L 151.300781 246.589844 L 152.210938 247.011719 L 153.121094 247.429688 L 154.035156 247.835938 L 154.953125 248.234375 L 155.875 248.625 L 156.800781 249.007812 L 157.730469 249.382812 L 158.664062 249.75 L 159.597656 250.109375 L 160.535156 250.460938 L 161.476562 250.800781 L 162.421875 251.136719 L 163.367188 251.460938 L 164.316406 251.777344 L 165.269531 252.085938 L 166.226562 252.386719 L 167.183594 252.679688 L 168.144531 252.964844 L 169.105469 253.238281 L 170.070312 253.503906 L 171.039062 253.761719 L 172.007812 254.011719 L 172.980469 254.253906 L 173.953125 254.488281 L 174.929688 254.710938 L 175.90625 254.925781 L 176.886719 255.132812 L 177.867188 255.332031 L 178.851562 255.523438 L 179.835938 255.703125 L 180.820312 255.875 L 181.808594 256.039062 L 182.796875 256.195312 L 183.789062 256.34375 L 184.78125 256.480469 L 185.773438 256.609375 L 186.765625 256.730469 L 187.761719 256.839844 L 188.757812 256.945312 L 189.753906 257.039062 L 190.75 257.125 L 191.75 257.203125 L 192.746094 257.269531 L 193.746094 257.328125 L 194.746094 257.378906 L 195.746094 257.421875 L 196.746094 257.453125 L 197.746094 257.476562 L 198.75 257.492188 L 199.75 257.5 L 200.75 257.496094 L 201.75 257.488281 L 202.753906 257.46875 L 203.753906 257.4375 L 204.753906 257.402344 L 205.753906 257.355469 L 206.753906 257.300781 L 207.75 257.238281 L 208.75 257.164062 L 209.746094 257.082031 L 210.746094 256.992188 L 211.742188 256.894531 L 212.734375 256.785156 L 213.730469 256.671875 L 214.722656 256.546875 L 215.714844 256.414062 L 216.707031 256.269531 L 217.695312 256.121094 L 218.683594 255.960938 L 219.671875 255.792969 L 220.65625 255.613281 L 221.640625 255.429688 L 222.621094 255.234375 L 223.601562 255.03125 L 224.582031 254.820312 L 225.558594 254.601562 L 226.535156 254.371094 L 227.507812 254.136719 L 228.476562 253.890625 L 229.445312 253.636719 L 230.410156 253.371094 L 231.375 253.101562 L 232.335938 252.824219 L 233.296875 252.535156 L 234.253906 252.238281 L 235.207031 251.933594 L 236.15625 251.621094 L 237.105469 251.300781 L 238.050781 250.96875 L 238.992188 250.632812 L 239.933594 250.285156 L 240.871094 249.929688 L 241.804688 249.566406 L 242.734375 249.195312 L 243.660156 248.816406 L 244.585938 248.429688 L 245.503906 248.035156 L 246.421875 247.632812 L 247.335938 247.222656 L 248.246094 246.800781 L 249.152344 246.375 L 250.054688 245.941406 L 250.953125 245.496094 L 251.847656 245.046875 L 252.738281 244.585938 L 253.625 244.121094 L 254.507812 243.644531 L 255.382812 243.164062 L 256.257812 242.675781 L 257.128906 242.175781 L 257.992188 241.671875 L 258.855469 241.160156 L 259.710938 240.640625 L 260.5625 240.109375 L 261.410156 239.574219 L 262.253906 239.035156 L 263.089844 238.484375 L 263.925781 237.925781 L 264.753906 237.363281 L 265.574219 236.789062 L 266.394531 236.210938 L 267.207031 235.625 L 268.015625 235.03125 L 268.816406 234.433594 L 269.613281 233.824219 L 270.40625 233.210938 L 271.195312 232.589844 L 271.976562 231.960938 L 272.75 231.328125 L 273.523438 230.683594 L 274.285156 230.035156 L 275.046875 229.382812 L 275.800781 228.71875 L 276.546875 228.050781 L 277.289062 227.375 L 278.023438 226.695312 L 278.753906 226.007812 L 279.476562 225.3125 L 280.195312 224.613281 L 280.90625 223.90625 L 281.613281 223.191406 L 282.3125 222.472656 L 283.003906 221.75 L 283.691406 221.015625 L 284.371094 220.28125 L 285.046875 219.539062 L 285.714844 218.789062 L 286.375 218.03125 L 287.027344 217.273438 L 287.675781 216.507812 L 288.316406 215.734375 L 288.949219 214.957031 L 289.578125 214.171875 L 290.199219 213.382812 L 290.8125 212.589844 L 291.417969 211.792969 L 292.019531 210.988281 L 292.609375 210.175781 L 293.195312 209.363281 L 293.773438 208.542969 L 294.34375 207.714844 L 294.910156 206.886719 L 295.464844 206.050781 L 296.015625 205.210938 L 296.558594 204.367188 L 297.09375 203.515625 L 297.621094 202.664062 L 298.140625 201.804688 L 298.652344 200.941406 L 299.15625 200.074219 L 299.65625 199.199219 L 300.144531 198.324219 L 300.625 197.441406 L 301.101562 196.558594 L 301.566406 195.667969 L 302.027344 194.777344 L 302.476562 193.878906 L 302.921875 192.976562 L 303.355469 192.074219 L 303.785156 191.164062 L 304.203125 190.25 L 304.617188 189.335938 L 305.019531 188.417969 L 305.414062 187.492188 L 305.800781 186.566406 L 306.183594 185.636719 L 306.554688 184.703125 L 306.917969 183.765625 L 307.273438 182.828125 L 307.617188 181.886719 L 307.957031 180.9375 L 308.289062 179.992188 L 308.609375 179.039062 L 308.921875 178.085938 L 309.230469 177.128906 L 309.527344 176.167969 L 309.816406 175.207031 L 310.097656 174.242188 L 310.367188 173.273438 L 310.632812 172.304688 L 310.886719 171.332031 L 311.132812 170.359375 L 311.371094 169.382812 L 311.601562 168.40625 L 311.824219 167.425781 L 312.035156 166.441406 L 312.238281 165.457031 L 312.433594 164.472656 L 312.621094 163.484375 L 312.800781 162.496094 L 312.96875 161.507812 L 313.132812 160.515625 L 313.285156 159.523438 L 313.425781 158.527344 L 313.5625 157.53125 L 313.6875 156.535156 L 313.808594 155.535156 L 313.917969 154.539062 L 314.015625 153.539062 L 314.109375 152.535156 L 314.191406 151.535156 L 314.265625 150.53125 L 314.332031 149.53125 L 314.386719 148.527344 L 314.4375 147.523438 L 314.476562 146.519531 L 314.507812 145.515625 L 314.527344 144.511719 L 314.542969 143.503906 Z M 314.546875 142.5 "/>
</svg>
