<?xml version="1.0" encoding="UTF-8"?>
<svg xmlns="http://www.w3.org/2000/svg" xmlns:xlink="http://www.w3.org/1999/xlink" width="400" height="400" viewBox="0 0 400 400">
<rect x="-40" y="-40" width="480" height="480" fill="rgb(100%, 100%, 100%)" fill-opacity="1"/>
<path fill-rule="nonzero" fill="rgb(100%, 100%, 100%)" fill-opacity="1" d="M 16 326 L 384 326 L 384 74 L 16 74 Z M 16 326 "/>
<path fill="none" stroke-width="2.5" stroke-linecap="round" stroke-linejoin="round" stroke="rgb(0%, 0%, 0%)" stroke-opacity="0.8" stroke-miterlimit="2" d="M 257.5 200 L 257.496094 199 L 257.484375 198 L 257.460938 196.996094 L 257.429688 195.996094 L 257.390625 194.996094 L 257.34375 193.996094 L 257.285156 192.996094 L 257.21875 192 L 257.144531 191 L 257.0625 190.003906 L 256.96875 189.007813 L 256.867188 188.011719 L 256.757813 187.015625 L 256.640625 186.019531 L 256.511719 185.027344 L 256.378906 184.035156 L 256.234375 183.046875 L 256.082031 182.054688 L 255.917969 181.070313 L 255.746094 180.082031 L 255.570313 179.097656 L 255.382813 178.113281 L 255.183594 177.132813 L 254.980469 176.152344 L 254.765625 175.175781 L 254.542969 174.199219 L 254.3125 173.222656 L 254.074219 172.25 L 253.828125 171.28125 L 253.570313 170.3125 L 253.304688 169.347656 L 253.03125 168.382813 L 252.75 167.421875 L 252.460938 166.464844 L 252.164063 165.507813 L 251.855469 164.554688 L 251.539063 163.605469 L 251.21875 162.65625 L 250.886719 161.710938 L 250.546875 160.769531 L 250.195313 159.832031 L 249.839844 158.894531 L 249.476563 157.964844 L 249.101563 157.035156 L 248.722656 156.109375 L 248.332031 155.183594 L 247.9375 154.265625 L 247.53125 153.347656 L 247.117188 152.4375 L 246.695313 151.527344 L 246.265625 150.621094 L 245.828125 149.722656 L 245.382813 148.824219 L 244.929688 147.929688 L 244.472656 147.039063 L 244.003906 146.15625 L 243.527344 145.273438 L 243.042969 144.398438 L 242.550781 143.523438 L 242.050781 142.65625 L 241.542969 141.789063 L 241.03125 140.929688 L 240.507813 140.074219 L 239.976563 139.226563 L 239.441406 138.378906 L 238.898438 137.539063 L 238.34375 136.699219 L 237.785156 135.867188 L 237.21875 135.042969 L 236.644531 134.21875 L 236.066406 133.402344 L 235.476563 132.589844 L 234.882813 131.785156 L 234.28125 130.984375 L 233.671875 130.1875 L 233.054688 129.394531 L 232.433594 128.609375 L 231.804688 127.828125 L 231.167969 127.054688 L 230.523438 126.285156 L 229.875 125.523438 L 229.214844 124.765625 L 228.554688 124.011719 L 227.882813 123.265625 L 227.207031 122.527344 L 226.523438 121.792969 L 225.835938 121.0625 L 225.140625 120.34375 L 224.4375 119.625 L 223.726563 118.914063 L 223.015625 118.210938 L 222.292969 117.515625 L 221.566406 116.824219 L 220.832031 116.136719 L 220.09375 115.460938 L 219.351563 114.785156 L 218.601563 114.121094 L 217.84375 113.460938 L 217.082031 112.808594 L 216.3125 112.164063 L 215.539063 111.523438 L 214.761719 110.890625 L 213.976563 110.265625 L 213.1875 109.648438 L 212.390625 109.035156 L 211.589844 108.429688 L 210.785156 107.832031 L 209.972656 107.242188 L 209.15625 106.660156 L 208.335938 106.082031 L 207.507813 105.511719 L 206.675781 104.949219 L 205.839844 104.394531 L 205 103.847656 L 204.152344 103.308594 L 203.304688 102.773438 L 202.449219 102.25 L 201.589844 101.730469 L 200.722656 101.21875 L 199.855469 100.71875 L 198.980469 100.222656 L 198.105469 99.734375 L 197.222656 99.253906 L 196.335938 98.78125 L 195.445313 98.316406 L 194.550781 97.859375 L 193.652344 97.410156 L 192.753906 96.96875 L 191.847656 96.535156 L 190.9375 96.109375 L 190.023438 95.691406 L 189.105469 95.28125 L 188.1875 94.882813 L 187.261719 94.488281 L 186.335938 94.101563 L 185.402344 93.726563 L 184.46875 93.355469 L 183.53125 92.992188 L 182.59375 92.640625 L 181.648438 92.296875 L 180.703125 91.960938 L 179.753906 91.632813 L 178.800781 91.3125 L 177.847656 91 L 176.886719 90.695313 L 175.929688 90.402344 L 174.964844 90.113281 L 174 89.835938 L 173.03125 89.566406 L 172.0625 89.304688 L 171.089844 89.050781 L 170.113281 88.804688 L 169.136719 88.570313 L 168.160156 88.34375 L 167.179688 88.125 L 166.195313 87.914063 L 165.210938 87.710938 L 164.226563 87.515625 L 163.238281 87.332031 L 162.25 87.15625 L 161.257813 86.988281 L 160.265625 86.828125 L 159.273438 86.679688 L 158.277344 86.539063 L 157.28125 86.40625 L 156.285156 86.28125 L 155.285156 86.164063 L 154.289063 86.058594 L 153.289063 85.960938 L 152.285156 85.871094 L 151.285156 85.789063 L 150.28125 85.71875 L 149.28125 85.652344 L 148.277344 85.597656 L 147.273438 85.554688 L 146.269531 85.515625 L 145.261719 85.488281 L 144.257813 85.46875 L 143.253906 85.457031 L 142.25 85.453125 L 141.242188 85.460938 L 140.238281 85.476563 L 139.234375 85.5 L 138.230469 85.535156 L 137.226563 85.574219 L 136.222656 85.625 L 135.21875 85.683594 L 134.214844 85.753906 L 133.214844 85.828125 L 132.214844 85.914063 L 131.210938 86.007813 L 130.210938 86.109375 L 129.214844 86.222656 L 128.214844 86.339844 L 127.21875 86.46875 L 126.222656 86.609375 L 125.230469 86.753906 L 124.238281 86.90625 L 123.246094 87.070313 L 122.253906 87.242188 L 121.265625 87.425781 L 120.28125 87.613281 L 119.296875 87.8125 L 118.3125 88.015625 L 117.332031 88.230469 L 116.351563 88.457031 L 115.371094 88.6875 L 114.398438 88.925781 L 113.425781 89.175781 L 112.453125 89.433594 L 111.484375 89.699219 L 110.515625 89.972656 L 109.554688 90.257813 L 108.589844 90.546875 L 107.632813 90.847656 L 106.675781 91.152344 L 105.722656 91.46875 L 104.773438 91.792969 L 103.824219 92.125 L 102.878906 92.46875 L 101.9375 92.816406 L 101 93.171875 L 100.0625 93.539063 L 99.128906 93.914063 L 98.203125 94.292969 L 97.277344 94.683594 L 96.351563 95.082031 L 95.433594 95.488281 L 94.519531 95.902344 L 93.609375 96.320313 L 92.699219 96.75 L 91.796875 97.1875 L 90.894531 97.632813 L 90 98.085938 L 89.109375 98.546875 L 88.21875 99.015625 L 87.335938 99.492188 L 86.457031 99.976563 L 85.582031 100.46875 L 84.710938 100.96875 L 83.84375 101.476563 L 82.980469 101.988281 L 82.125 102.511719 L 81.269531 103.039063 L 80.421875 103.578125 L 79.578125 104.121094 L 78.738281 104.671875 L 77.90625 105.230469 L 77.078125 105.796875 L 76.253906 106.371094 L 75.433594 106.949219 L 74.621094 107.539063 L 73.8125 108.132813 L 73.007813 108.734375 L 72.210938 109.339844 L 71.417969 109.957031 L 70.628906 110.578125 L 69.847656 111.207031 L 69.074219 111.84375 L 68.300781 112.484375 L 67.535156 113.136719 L 66.777344 113.789063 L 66.023438 114.453125 L 65.277344 115.121094 L 64.535156 115.796875 L 63.800781 116.480469 L 63.070313 117.167969 L 62.34375 117.863281 L 61.628906 118.5625 L 60.917969 119.269531 L 60.210938 119.984375 L 59.511719 120.703125 L 58.820313 121.429688 L 58.132813 122.160156 L 57.453125 122.898438 L 56.78125 123.640625 L 56.113281 124.390625 L 55.453125 125.144531 L 54.800781 125.902344 L 54.152344 126.671875 L 53.515625 127.441406 L 52.882813 128.21875 L 52.253906 129.003906 L 51.636719 129.789063 L 51.023438 130.582031 L 50.417969 131.382813 L 49.820313 132.1875 L 49.226563 132.996094 L 48.644531 133.8125 L 48.066406 134.628906 L 47.496094 135.453125 L 46.933594 136.285156 L 46.378906 137.117188 L 45.828125 137.957031 L 45.289063 138.800781 L 44.757813 139.648438 L 44.230469 140.503906 L 43.710938 141.359375 L 43.203125 142.222656 L 42.699219 143.089844 L 42.203125 143.960938 L 41.714844 144.835938 L 41.234375 145.714844 L 40.761719 146.597656 L 40.296875 147.484375 L 39.839844 148.375 L 39.390625 149.273438 L 38.949219 150.171875 L 38.519531 151.074219 L 38.09375 151.980469 L 37.675781 152.890625 L 37.265625 153.808594 L 36.863281 154.722656 L 36.472656 155.644531 L 36.085938 156.570313 L 35.710938 157.5 L 35.339844 158.429688 L 34.980469 159.363281 L 34.628906 160.300781 L 34.285156 161.242188 L 33.949219 162.183594 L 33.621094 163.132813 L 33.300781 164.082031 L 32.988281 165.03125 L 32.6875 165.988281 L 32.394531 166.945313 L 32.105469 167.902344 L 31.828125 168.867188 L 31.5625 169.828125 L 31.300781 170.796875 L 31.046875 171.765625 L 30.804688 172.738281 L 30.570313 173.710938 L 30.34375 174.683594 L 30.125 175.664063 L 29.917969 176.640625 L 29.714844 177.621094 L 29.523438 178.605469 L 29.339844 179.589844 L 29.164063 180.574219 L 29 181.5625 L 28.84375 182.550781 L 28.695313 183.539063 L 28.554688 184.53125 L 28.421875 185.523438 L 28.300781 186.519531 L 28.183594 187.511719 L 28.082031 188.507813 L 27.984375 189.503906 L 27.894531 190.5 L 27.816406 191.5 L 27.746094 192.496094 L 27.683594 193.496094 L 27.632813 194.496094 L 27.589844 195.496094 L 27.554688 196.496094 L 27.527344 197.496094 L 27.511719 198.5 L 27.5 199.5 L 27.5 200.5 L 27.511719 201.5 L 27.527344 202.503906 L 27.554688 203.503906 L 27.589844 204.503906 L 27.632813 205.503906 L 27.683594 206.503906 L 27.746094 207.503906 L 27.816406 208.5 L 27.894531 209.5 L 27.984375 210.496094 L 28.082031 211.492188 L 28.183594 212.488281 L 28.300781 213.480469 L 28.421875 214.476563 L 28.554688 215.46875 L 28.695313 216.460938 L 28.84375 217.449219 L 29 218.4375 L 29.164063 219.425781 L 29.339844 220.410156 L 29.523438 221.394531 L 29.714844 222.378906 L 29.917969 223.359375 L 30.125 224.335938 L 30.34375 225.316406 L 30.570313 226.289063 L 30.804688 227.261719 L 31.046875 228.234375 L 31.300781 229.203125 L 31.5625 230.171875 L 31.828125 231.132813 L 32.105469 232.097656 L 32.394531 233.054688 L 32.6875 234.011719 L 32.988281 234.96875 L 33.300781 235.917969 L 33.621094 236.867188 L 33.949219 237.816406 L 34.285156 238.757813 L 34.628906 239.699219 L 34.980469 240.636719 L 35.339844 241.570313 L 35.710938 242.5 L 36.085938 243.429688 L 36.472656 244.355469 L 36.863281 245.277344 L 37.265625 246.191406 L 37.675781 247.109375 L 38.09375 248.019531 L 38.519531 248.925781 L 38.949219 249.828125 L 39.390625 250.726563 L 39.839844 251.625 L 40.296875 252.515625 L 40.761719 253.402344 L 41.234375 254.285156 L 41.714844 255.164063 L 42.203125 256.039063 L 42.699219 256.910156 L 43.203125 257.777344 L 43.710938 258.640625 L 44.230469 259.496094 L 44.757813 260.351563 L 45.289063 261.199219 L 45.828125 262.042969 L 46.378906 262.882813 L 46.933594 263.714844 L 47.496094 264.546875 L 48.066406 265.371094 L 48.644531 266.1875 L 49.226563 267.003906 L 49.820313 267.8125 L 50.417969 268.617188 L 51.023438 269.417969 L 51.636719 270.210938 L 52.253906 270.996094 L 52.882813 271.78125 L 53.515625 272.558594 L 54.152344 273.328125 L 54.800781 274.097656 L 55.453125 274.855469 L 56.113281 275.609375 L 56.78125 276.359375 L 57.453125 277.101563 L 58.132813 277.839844 L 58.820313 278.570313 L 59.511719 279.296875 L 60.210938 280.015625 L 60.917969 280.730469 L 61.628906 281.4375 L 62.34375 282.136719 L 63.070313 282.832031 L 63.800781 283.519531 L 64.535156 284.203125 L 65.277344 284.878906 L 66.023438 285.546875 L 66.777344 286.210938 L 67.535156 286.863281 L 68.300781 287.515625 L 69.074219 288.15625 L 69.847656 288.792969 L 70.628906 289.421875 L 71.417969 290.042969 L 72.210938 290.660156 L 73.007813 291.265625 L 73.8125 291.867188 L 74.621094 292.460938 L 75.433594 293.050781 L 76.253906 293.628906 L 77.078125 294.203125 L 77.90625 294.769531 L 78.738281 295.328125 L 79.578125 295.878906 L 80.421875 296.421875 L 81.269531 296.960938 L 82.125 297.488281 L 82.980469 298.011719 L 83.84375 298.523438 L 84.710938 299.03125 L 85.582031 299.53125 L 86.457031 300.023438 L 87.335938 300.507813 L 88.21875 300.984375 L 89.109375 301.453125 L 90 301.914063 L 90.894531 302.367188 L 91.796875 302.8125 L 92.699219 303.25 L 93.609375 303.679688 L 94.519531 304.097656 L 95.433594 304.511719 L 96.351563 304.917969 L 97.277344 305.316406 L 98.203125 305.707031 L 99.128906 306.085938 L 100.0625 306.460938 L 101 306.828125 L 101.9375 307.183594 L 102.878906 307.53125 L 103.824219 307.875 L 104.773438 308.207031 L 105.722656 308.53125 L 106.675781 308.847656 L 107.632813 309.152344 L 108.589844 309.453125 L 109.554688 309.742188 L 110.515625 310.027344 L 111.484375 310.300781 L 112.453125 310.566406 L 113.425781 310.824219 L 114.398438 311.074219 L 115.371094 311.3125 L 116.351563 311.542969 L 117.332031 311.769531 L 118.3125 311.984375 L 119.296875 312.1875 L 120.28125 312.386719 L 121.265625 312.574219 L 122.253906 312.757813 L 123.246094 312.929688 L 124.238281 313.09375 L 125.230469 313.246094 L 126.222656 313.390625 L 127.21875 313.53125 L 128.214844 313.660156 L 129.214844 313.777344 L 130.210938 313.890625 L 131.210938 313.992188 L 132.214844 314.085938 L 133.214844 314.171875 L 134.214844 314.246094 L 135.21875 314.316406 L 136.222656 314.375 L 137.226563 314.425781 L 138.230469 314.464844 L 139.234375 314.5 L 140.238281 314.523438 L 141.242188 314.539063 L 142.25 314.546875 L 143.253906 314.542969 L 144.257813 314.53125 L 145.261719 314.511719 L 146.269531 314.484375 L 147.273438 314.445313 L 148.277344 314.402344 L 149.28125 314.347656 L 150.28125 314.28125 L 151.285156 314.210938 L 152.285156 314.128906 L 153.289063 314.039063 L 154.289063 313.941406 L 155.285156 313.835938 L 156.285156 313.71875 L 157.28125 313.59375 L 158.277344 313.460938 L 159.273438 313.320313 L 160.265625 313.171875 L 161.257813 313.011719 L 162.25 312.84375 L 163.238281 312.667969 L 164.226563 312.484375 L 165.210938 312.289063 L 166.195313 312.085938 L 167.179688 311.875 L 168.160156 311.65625 L 169.136719 311.429688 L 170.113281 311.195313 L 171.089844 310.949219 L 172.0625 310.695313 L 173.03125 310.433594 L 174 310.164063 L 174.964844 309.886719 L 175.929688 309.597656 L 176.886719 309.304688 L 177.847656 309 L 178.800781 308.6875 L 179.753906 308.367188 L 180.703125 308.039063 L 181.648438 307.703125 L 182.59375 307.359375 L 183.53125 307.007813 L 184.46875 306.644531 L 185.402344 306.273438 L 186.335938 305.898438 L 187.261719 305.511719 L 188.1875 305.117188 L 189.105469 304.71875 L 190.023438 304.308594 L 190.9375 303.890625 L 191.847656 303.464844 L 192.753906 303.03125 L 193.652344 302.589844 L 194.550781 302.140625 L 195.445313 301.683594 L 196.335938 301.21875 L 197.222656 300.746094 L 198.105469 300.265625 L 198.980469 299.777344 L 199.855469 299.28125 L 200.722656 298.78125 L 201.589844 298.269531 L 202.449219 297.75 L 203.304688 297.226563 L 204.152344 296.691406 L 205 296.152344 L 205.839844 295.605469 L 206.675781 295.050781 L 207.507813 294.488281 L 208.335938 293.917969 L 209.15625 293.339844 L 209.972656 292.757813 L 210.785156 292.167969 L 211.589844 291.570313 L 212.390625 290.964844 L 213.1875 290.351563 L 213.976563 289.734375 L 214.761719 289.109375 L 215.539063 288.476563 L 216.3125 287.835938 L 217.082031 287.191406 L 217.84375 286.539063 L 218.601563 285.878906 L 219.351563 285.214844 L 220.09375 284.539063 L 220.832031 283.863281 L 221.566406 283.175781 L 222.292969 282.484375 L 223.015625 281.789063 L 223.726563 281.085938 L 224.4375 280.375 L 225.140625 279.65625 L 225.835938 278.9375 L 226.523438 278.207031 L 227.207031 277.472656 L 227.882813 276.734375 L 228.554688 275.988281 L 229.214844 275.234375 L 229.875 274.476563 L 230.523438 273.714844 L 231.167969 272.945313 L 231.804688 272.171875 L 232.433594 271.390625 L 233.054688 270.605469 L 233.671875 269.8125 L 234.28125 269.015625 L 234.882813 268.214844 L 235.476563 267.410156 L 236.066406 266.597656 L 236.644531 265.78125 L 237.21875 264.957031 L 237.785156 264.132813 L 238.34375 263.300781 L 238.898438 262.460938 L 239.441406 261.621094 L 239.976563 260.773438 L 240.507813 259.925781 L 241.03125 259.070313 L 241.542969 258.210938 L 242.050781 257.34375 L 242.550781 256.476563 L 243.042969 255.601563 L 243.527344 254.726563 L 244.003906 253.84375 L 244.472656 252.960938 L 244.929688 252.070313 L 245.382813 251.175781 L 245.828125 250.277344 L 246.265625 249.378906 L 246.695313 248.472656 L 247.117188 247.5625 L 247.53125 246.652344 L 247.9375 245.734375 L 248.332031 244.816406 L 248.722656 243.890625 L 249.101563 242.964844 L 249.476563 242.035156 L 249.839844 241.105469 L 250.195313 240.167969 L 250.546875 239.230469 L 250.886719 238.289063 L 251.21875 237.34375 L 251.539063 236.394531 L 251.855469 235.445313 L 252.164063 234.492188 L 252.460938 233.535156 L 252.75 232.578125 L 253.03125 231.617188 L 253.304688 230.652344 L 253.570313 229.6875 L 253.828125 228.71875 L 254.074219 227.75 L 254.3125 226.777344 L 254.542969 225.800781 L 254.765625 224.824219 L 254.980469 223.847656 L 255.183594 222.867188 L 255.382813 221.886719 L 255.570313 220.902344 L 255.746094 219.917969 L 255.917969 218.929688 L 256.082031 217.945313 L 256.234375 216.953125 L 256.378906 215.964844 L 256.511719 214.972656 L 256.640625 213.980469 L 256.757813 212.984375 L 256.867188 211.988281 L 256.96875 210.992188 L 257.0625 209.996094 L 257.144531 209 L 257.21875 208 L 257.285156 207.003906 L 257.34375 206.003906 L 257.390625 205.003906 L 257.429688 204.003906 L 257.460938 203.003906 L 257.484375 202 L 257.496094 201 Z M 257.5 200 "/>
<path fill="none" stroke-width="2.5" stroke-linecap="round" stroke-linejoin="round" stroke="rgb(0%, 0%, 0%)" stroke-opacity="0.8" stroke-miterlimit="2" d="M 372.5 200 L 372.496094 199 L 372.484375 198 L 372.460938 196.996094 L 372.429688 195.996094 L 372.390625 194.996094 L 372.34375 193.996094 L 372.285156 192.996094 L 372.21875 192 L 372.144531 191 L 372.0625 190.003906 L 371.96875 189.007813 L 371.867188 188.011719 L 371.757813 187.015625 L 371.640625 186.019531 L 371.511719 185.027344 L 371.378906 184.035156 L 371.234375 183.046875 L 371.082031 182.054688 L 370.917969 181.070313 L 370.75 180.082031 L 370.570313 179.097656 L 370.382813 178.113281 L 370.183594 177.132813 L 369.980469 176.152344 L 369.765625 175.175781 L 369.542969 174.199219 L 369.3125 173.222656 L 369.074219 172.25 L 368.828125 171.28125 L 368.570313 170.3125 L 368.304688 169.347656 L 368.03125 168.382813 L 367.75 167.421875 L 367.460938 166.464844 L 367.164063 165.507813 L 366.855469 164.554688 L 366.539063 163.605469 L 366.21875 162.65625 L 365.886719 161.710938 L 365.546875 160.769531 L 365.195313 159.832031 L 364.839844 158.894531 L 364.476563 157.964844 L 364.101563 157.035156 L 363.722656 156.109375 L 363.332031 155.183594 L 362.9375 154.265625 L 362.53125 153.347656 L 362.117188 152.4375 L 361.695313 151.527344 L 361.265625 150.621094 L 360.828125 149.722656 L 360.382813 148.824219 L 359.929688 147.929688 L 359.472656 147.039063 L 359.003906 146.15625 L 358.527344 145.273438 L 358.042969 144.398438 L 357.550781 143.523438 L 357.050781 142.65625 L 356.542969 141.789063 L 356.03125 140.929688 L 355.507813 140.074219 L 354.976563 139.226563 L 354.441406 138.378906 L 353.898438 137.539063 L 353.34375 136.699219 L 352.785156 135.867188 L 352.21875 135.042969 L 351.644531 134.21875 L 351.066406 133.402344 L 350.476563 132.589844 L 349.882813 131.785156 L 349.28125 130.984375 L 348.671875 130.1875 L 348.054688 129.394531 L 347.433594 128.609375 L 346.804688 127.828125 L 346.167969 127.054688 L 345.523438 126.285156 L 344.875 125.523438 L 344.214844 124.765625 L 343.554688 124.011719 L 342.882813 123.265625 L 342.207031 122.527344 L 341.523438 121.792969 L 340.835938 121.0625 L 340.140625 120.34375 L 339.4375 119.625 L 338.726563 118.914063 L 338.015625 118.210938 L 337.292969 117.515625 L 336.566406 116.824219 L 335.832031 116.136719 L 335.09375 115.460938 L 334.351563 114.785156 L 333.601563 114.121094 L 332.84375 113.460938 L 332.082031 112.808594 L 331.3125 112.164063 L 330.539063 111.523438 L 329.761719 110.890625 L 328.976563 110.265625 L 328.1875 109.648438 L 327.390625 109.035156 L 326.589844 108.429688 L 325.785156 107.832031 L 324.972656 107.242188 L 324.15625 106.660156 L 323.335938 106.082031 L 322.507813 105.511719 L 321.675781 104.949219 L 320.839844 104.394531 L 320 103.847656 L 319.152344 103.308594 L 318.304688 102.773438 L 317.449219 102.25 L 316.589844 101.730469 L 315.722656 101.21875 L 314.855469 100.71875 L 313.980469 100.222656 L 313.105469 99.734375 L 312.222656 99.253906 L 311.335938 98.78125 L 310.445313 98.316406 L 309.550781 97.859375 L 308.652344 97.410156 L 307.753906 96.96875 L 306.847656 96.535156 L 305.9375 96.109375 L 305.023438 95.691406 L 304.105469 95.28125 L 303.1875 94.882813 L 302.261719 94.488281 L 301.335938 94.101563 L 300.402344 93.726563 L 299.46875 93.355469 L 298.53125 92.992188 L 297.59375 92.640625 L 296.648438 92.296875 L 295.703125 91.960938 L 294.753906 91.632813 L 293.800781 91.3125 L 292.847656 91 L 291.886719 90.695313 L 290.929688 90.402344 L 289.964844 90.113281 L 289 89.835938 L 288.03125 89.566406 L 287.0625 89.304688 L 286.089844 89.050781 L 285.113281 88.804688 L 284.136719 88.570313 L 283.160156 88.34375 L 282.179688 88.125 L 281.195313 87.914063 L 280.210938 87.710938 L 279.226563 87.515625 L 278.238281 87.332031 L 277.25 87.15625 L 276.257813 86.988281 L 275.265625 86.828125 L 274.273438 86.679688 L 273.277344 86.539063 L 272.28125 86.40625 L 271.285156 86.28125 L 270.285156 86.164063 L 269.289063 86.058594 L 268.289063 85.960938 L 267.285156 85.871094 L 266.285156 85.789063 L 265.28125 85.71875 L 264.28125 85.652344 L 263.277344 85.597656 L 262.273438 85.554688 L 261.269531 85.515625 L 260.261719 85.488281 L 259.257813 85.46875 L 258.253906 85.457031 L 257.25 85.453125 L 256.242188 85.460938 L 255.238281 85.476563 L 254.234375 85.5 L 253.230469 85.535156 L 252.226563 85.574219 L 251.222656 85.625 L 250.21875 85.683594 L 249.214844 85.753906 L 248.214844 85.828125 L 247.214844 85.914063 L 246.210938 86.007813 L 245.210938 86.109375 L 244.214844 86.222656 L 243.214844 86.339844 L 242.21875 86.46875 L 241.222656 86.609375 L 240.230469 86.753906 L 239.238281 86.90625 L 238.246094 87.070313 L 237.253906 87.242188 L 236.265625 87.425781 L 235.28125 87.613281 L 234.296875 87.8125 L 233.3125 88.015625 L 232.332031 88.230469 L 231.351563 88.457031 L 230.371094 88.6875 L 229.398438 88.925781 L 228.425781 89.175781 L 227.453125 89.433594 L 226.484375 89.699219 L 225.515625 89.972656 L 224.554688 90.257813 L 223.589844 90.546875 L 222.632813 90.847656 L 221.675781 91.152344 L 220.722656 91.46875 L 219.773438 91.792969 L 218.824219 92.125 L 217.878906 92.46875 L 216.9375 92.816406 L 216 93.171875 L 215.0625 93.539063 L 214.128906 93.914063 L 213.203125 94.292969 L 212.277344 94.683594 L 211.351563 95.082031 L 210.433594 95.488281 L 209.519531 95.902344 L 208.609375 96.320313 L 207.699219 96.75 L 206.796875 97.1875 L 205.894531 97.632813 L 205 98.085938 L 204.109375 98.546875 L 203.21875 99.015625 L 202.335938 99.492188 L 201.457031 99.976563 L 200.582031 100.46875 L 199.710938 100.96875 L 198.84375 101.476563 L 197.980469 101.988281 L 197.125 102.511719 L 196.269531 103.039063 L 195.421875 103.578125 L 194.578125 104.121094 L 193.738281 104.671875 L 192.90625 105.230469 L 192.078125 105.796875 L 191.253906 106.371094 L 190.433594 106.949219 L 189.621094 107.539063 L 188.8125 108.132813 L 188.007813 108.734375 L 187.210938 109.339844 L 186.417969 109.957031 L 185.628906 110.578125 L 184.847656 111.207031 L 184.074219 111.84375 L 183.300781 112.484375 L 182.535156 113.136719 L 181.777344 113.789063 L 181.023438 114.453125 L 180.277344 115.121094 L 179.535156 115.796875 L 178.800781 116.480469 L 178.070313 117.167969 L 177.34375 117.863281 L 176.628906 118.5625 L 175.917969 119.269531 L 175.210938 119.984375 L 174.511719 120.703125 L 173.820313 121.429688 L 173.132813 122.160156 L 172.453125 122.898438 L 171.78125 123.640625 L 171.113281 124.390625 L 170.453125 125.144531 L 169.800781 125.902344 L 169.152344 126.671875 L 168.515625 127.441406 L 167.882813 128.21875 L 167.253906 129.003906 L 166.636719 129.789063 L 166.023438 130.582031 L 165.417969 131.382813 L 164.820313 132.1875 L 164.226563 132.996094 L 163.644531 133.8125 L 163.066406 134.628906 L 162.496094 135.453125 L 161.933594 136.285156 L 161.378906 137.117188 L 160.828125 137.957031 L 160.289063 138.800781 L 159.757813 139.648438 L 159.230469 140.503906 L 158.710938 141.359375 L 158.203125 142.222656 L 157.699219 143.089844 L 157.203125 143.960938 L 156.714844 144.835938 L 156.234375 145.714844 L 155.761719 146.597656 L 155.296875 147.484375 L 154.839844 148.375 L 154.390625 149.273438 L 153.949219 150.171875 L 153.519531 151.074219 L 153.09375 151.980469 L 152.675781 152.890625 L 152.265625 153.808594 L 151.863281 154.722656 L 151.472656 155.644531 L 151.085938 156.570313 L 150.710938 157.5 L 150.339844 158.429688 L 149.980469 159.363281 L 149.628906 160.300781 L 149.285156 161.242188 L 148.949219 162.183594 L 148.621094 163.132813 L 148.300781 164.082031 L 147.988281 165.03125 L 147.6875 165.988281 L 147.394531 166.945313 L 147.105469 167.902344 L 146.828125 168.867188 L 146.5625 169.828125 L 146.300781 170.796875 L 146.046875 171.765625 L 145.804688 172.738281 L 145.570313 173.710938 L 145.34375 174.683594 L 145.125 175.664063 L 144.917969 176.640625 L 144.714844 177.621094 L 144.523438 178.605469 L 144.339844 179.589844 L 144.164063 180.574219 L 144 181.5625 L 143.84375 182.550781 L 143.695313 183.539063 L 143.554688 184.53125 L 143.421875 185.523438 L 143.300781 186.519531 L 143.183594 187.511719 L 143.082031 188.507813 L 142.984375 189.503906 L 142.894531 190.5 L 142.816406 191.5 L 142.746094 192.496094 L 142.683594 193.496094 L 142.632813 194.496094 L 142.589844 195.496094 L 142.554688 196.496094 L 142.527344 197.496094 L 142.511719 198.5 L 142.5 199.5 L 142.5 200.5 L 142.511719 201.5 L 142.527344 202.503906 L 142.554688 203.503906 L 142.589844 204.503906 L 142.632813 205.503906 L 142.683594 206.503906 L 142.746094 207.503906 L 142.816406 208.5 L 142.894531 209.5 L 142.984375 210.496094 L 143.082031 211.492188 L 143.183594 212.488281 L 143.300781 213.480469 L 143.421875 214.476563 L 143.554688 215.46875 L 143.695313 216.460938 L 143.84375 217.449219 L 144 218.4375 L 144.164063 219.425781 L 144.339844 220.410156 L 144.523438 221.394531 L 144.714844 222.378906 L 144.917969 223.359375 L 145.125 224.335938 L 145.34375 225.316406 L 145.570313 226.289063 L 145.804688 227.261719 L 146.046875 228.234375 L 146.300781 229.203125 L 146.5625 230.171875 L 146.828125 231.132813 L 147.105469 232.097656 L 147.394531 233.054688 L 147.6875 234.011719 L 147.988281 234.96875 L 148.300781 235.917969 L 148.621094 236.867188 L 148.949219 237.816406 L 149.285156 238.757813 L 149.628906 239.699219 L 149.980469 240.636719 L 150.339844 241.570313 L 150.710938 242.5 L 151.085938 243.429688 L 151.472656 244.355469 L 151.863281 245.277344 L 152.265625 246.191406 L 152.675781 247.109375 L 153.09375 248.019531 L 153.519531 248.925781 L 153.949219 249.828125 L 154.390625 250.726563 L 154.839844 251.625 L 155.296875 252.515625 L 155.761719 253.402344 L 156.234375 254.285156 L 156.714844 255.164063 L 157.203125 256.039063 L 157.699219 256.910156 L 158.203125 257.777344 L 158.710938 258.640625 L 159.230469 259.496094 L 159.757813 260.351563 L 160.289063 261.199219 L 160.828125 262.042969 L 161.378906 262.882813 L 161.933594 263.714844 L 162.496094 264.546875 L 163.066406 265.371094 L 163.644531 266.1875 L 164.226563 267.003906 L 164.820313 267.8125 L 165.417969 268.617188 L 166.023438 269.417969 L 166.636719 270.210938 L 167.253906 270.996094 L 167.882813 271.78125 L 168.515625 272.558594 L 169.152344 273.328125 L 169.800781 274.097656 L 170.453125 274.855469 L 171.113281 275.609375 L 171.78125 276.359375 L 172.453125 277.101563 L 173.132813 277.839844 L 173.820313 278.570313 L 174.511719 279.296875 L 175.210938 280.015625 L 175.917969 280.730469 L 176.628906 281.4375 L 177.34375 282.136719 L 178.070313 282.832031 L 178.800781 283.519531 L 179.535156 284.203125 L 180.277344 284.878906 L 181.023438 285.546875 L 181.777344 286.210938 L 182.535156 286.863281 L 183.300781 287.515625 L 184.074219 288.15625 L 184.847656 288.792969 L 185.628906 289.421875 L 186.417969 290.042969 L 187.210938 290.660156 L 188.007813 291.265625 L 188.8125 291.867188 L 189.621094 292.460938 L 190.433594 293.050781 L 191.253906 293.628906 L 192.078125 294.203125 L 192.90625 294.769531 L 193.738281 295.328125 L 194.578125 295.878906 L 195.421875 296.421875 L 196.269531 296.960938 L 197.125 297.488281 L 197.980469 298.011719 L 198.84375 298.523438 L 199.710938 299.03125 L 200.582031 299.53125 L 201.457031 300.023438 L 202.335938 300.507813 L 203.21875 300.984375 L 204.109375 301.453125 L 205 301.914063 L 205.894531 302.367188 L 206.796875 302.8125 L 207.699219 303.25 L 208.609375 303.679688 L 209.519531 304.097656 L 210.433594 304.511719 L 211.351563 304.917969 L 212.277344 305.316406 L 213.203125 305.707031 L 214.128906 306.085938 L 215.0625 306.460938 L 216 306.828125 L 216.9375 307.183594 L 217.878906 307.53125 L 218.824219 307.875 L 219.773438 308.207031 L 220.722656 308.53125 L 221.675781 308.847656 L 222.632813 309.152344 L 223.589844 309.453125 L 224.554688 309.742188 L 225.515625 310.027344 L 226.484375 310.300781 L 227.453125 310.566406 L 228.425781 310.824219 L 229.398438 311.074219 L 230.371094 311.3125 L 231.351563 311.542969 L 232.332031 311.769531 L 233.3125 311.984375 L 234.296875 312.1875 L 235.28125 312.386719 L 236.265625 312.574219 L 237.253906 312.757813 L 238.246094 312.929688 L 239.238281 313.09375 L 240.230469 313.246094 L 241.222656 313.390625 L 242.21875 313.53125 L 243.214844 313.660156 L 244.214844 313.777344 L 245.210938 313.890625 L 246.210938 313.992188 L 247.214844 314.085938 L 248.214844 314.171875 L 249.214844 314.246094 L 250.21875 314.316406 L 251.222656 314.375 L 252.226563 314.425781 L 253.230469 314.464844 L 254.234375 314.5 L 255.238281 314.523438 L 256.242188 314.539063 L 257.25 314.546875 L 258.253906 314.542969 L 259.257813 314.53125 L 260.261719 314.511719 L 261.269531 314.484375 L 262.273438 314.445313 L 263.277344 314.402344 L 264.28125 314.347656 L 265.28125 314.28125 L 266.285156 314.210938 L 267.285156 314.128906 L 268.289063 314.039063 L 269.289063 313.941406 L 270.285156 313.835938 L 271.285156 313.71875 L 272.28125 313.59375 L 273.277344 313.460938 L 274.273438 313.320313 L 275.265625 313.171875 L 276.257813 313.011719 L 277.25 312.84375 L 278.238281 312.667969 L 279.226563 312.484375 L 280.210938 312.289063 L 281.195313 312.085938 L 282.179688 311.875 L 283.160156 311.65625 L 284.136719 311.429688 L 285.113281 311.195313 L 286.089844 310.949219 L 287.0625 310.695313 L 288.03125 310.433594 L 289 310.164063 L 289.964844 309.886719 L 290.929688 309.597656 L 291.886719 309.304688 L 292.847656 309 L 293.800781 308.6875 L 294.753906 308.367188 L 295.703125 308.039063 L 296.648438 307.703125 L 297.59375 307.359375 L 298.53125 307.007813 L 299.46875 306.644531 L 300.402344 306.273438 L 301.335938 305.898438 L 302.261719 305.511719 L 303.1875 305.117188 L 304.105469 304.71875 L 305.023438 304.308594 L 305.9375 303.890625 L 306.847656 303.464844 L 307.753906 303.03125 L 308.652344 302.589844 L 309.550781 302.140625 L 310.445313 301.683594 L 311.335938 301.21875 L 312.222656 300.746094 L 313.105469 300.265625 L 313.980469 299.777344 L 314.855469 299.28125 L 315.722656 298.78125 L 316.589844 298.269531 L 317.449219 297.75 L 318.304688 297.226563 L 319.152344 296.691406 L 320 296.152344 L 320.839844 295.605469 L 321.675781 295.050781 L 322.507813 294.488281 L 323.335938 293.917969 L 324.15625 293.339844 L 324.972656 292.757813 L 325.785156 292.167969 L 326.589844 291.570313 L 327.390625 290.964844 L 328.1875 290.351563 L 328.976563 289.734375 L 329.761719 289.109375 L 330.539063 288.476563 L 331.3125 287.835938 L 332.082031 287.191406 L 332.84375 286.539063 L 333.601563 285.878906 L 334.351563 285.214844 L 335.09375 284.539063 L 335.832031 283.863281 L 336.566406 283.175781 L 337.292969 282.484375 L 338.015625 281.789063 L 338.726563 281.085938 L 339.4375 280.375 L 340.140625 279.65625 L 340.835938 278.9375 L 341.523438 278.207031 L 342.207031 277.472656 L 342.882813 276.734375 L 343.554688 275.988281 L 344.214844 275.234375 L 344.875 274.476563 L 345.523438 273.714844 L 346.167969 272.945313 L 346.804688 272.171875 L 347.433594 271.390625 L 348.054688 270.605469 L 348.671875 269.8125 L 349.28125 269.015625 L 349.882813 268.214844 L 350.476563 267.410156 L 351.066406 266.597656 L 351.644531 265.78125 L 352.21875 264.957031 L 352.785156 264.132813 L 353.34375 263.300781 L 353.898438 262.460938 L 354.441406 261.621094 L 354.976563 260.773438 L 355.507813 259.925781 L 356.03125 259.070313 L 356.542969 258.210938 L 357.050781 257.34375 L 357.550781 256.476563 L 358.042969 255.601563 L 358.527344 254.726563 L 359.003906 253.84375 L 359.472656 252.960938 L 359.929688 252.070313 L 360.382813 251.175781 L 360.828125 250.277344 L 361.265625 249.378906 L 361.695313 248.472656 L 362.117188 247.5625 L 362.53125 246.652344 L 362.9375 245.734375 L 363.332031 244.816406 L 363.722656 243.890625 L 364.101563 242.964844 L 364.476563 242.035156 L 364.839844 241.105469 L 365.195313 240.167969 L 365.546875 239.230469 L 365.886719 238.289063 L 366.21875 237.34375 L 366.539063 236.394531 L 366.855469 235.445313 L 367.164063 234.492188 L 367.460938 233.535156 L 367.75 232.578125 L 368.03125 231.617188 L 368.304688 230.652344 L 368.570313 229.6875 L 368.828125 228.71875 L 369.074219 227.75 L 369.3125 226.777344 L 369.542969 225.800781 L 369.765625 224.824219 L 369.980469 223.847656 L 370.183594 222.867188 L 370.382813 221.886719 L 370.570313 220.902344 L 370.75 219.917969 L 370.917969 218.929688 L 371.082031 217.945313 L 371.234375 216.953125 L 371.378906 215.964844 L 371.511719 214.972656 L 371.640625 213.980469 L 371.757813 212.984375 L 371.867188 211.988281 L 371.96875 210.992188 L 372.0625 209.996094 L 372.144531 209 L 372.21875 208 L 372.285156 207.003906 L 372.34375 206.003906 L 372.390625 205.003906 L 372.429688 204.003906 L 372.460938 203.003906 L 372.484375 202 L 372.496094 201 Z M 372.5 200 "/>
</svg>
